<svg width="30" height="20" viewBox="0 0 30 20" fill="none" xmlns="http://www.w3.org/2000/svg">
<g clip-path="url(#clip0_211_2538)">
<path d="M27.6981 1.05679C27.6981 1.38115 27.9643 1.6441 28.2927 1.6441H28.8872C29.2156 1.6441 29.4818 1.38115 29.4818 1.05679C29.4818 0.73243 29.2156 0.469482 28.8872 0.469482H28.2927C27.9643 0.469482 27.6981 0.73243 27.6981 1.05679Z" fill="#212326"/>
<path d="M10.4558 19.2634H13.3441L12.5032 18.4328C12.2803 18.2125 11.9778 18.0887 11.6624 18.0887H10.4558C5.85869 18.0887 2.13199 14.4075 2.13199 9.86642C2.13199 5.32535 5.85869 1.6441 10.4558 1.6441H19.9688C24.5659 1.6441 28.2926 5.32535 28.2926 9.86642C28.2926 14.4075 24.5659 18.0887 19.9688 18.0887H16.4102C15.9371 18.0887 15.4834 17.9031 15.1489 17.5727L14.1638 16.5996C13.6063 16.0489 12.8501 15.7395 12.0617 15.7395H10.4558C7.17214 15.7395 4.51023 13.1101 4.51023 9.86642C4.51023 6.62279 7.17214 3.99333 10.4558 3.99333H19.9688C23.2525 3.99333 25.9144 6.62279 25.9144 9.86642C25.9144 13.1101 23.2525 15.7395 19.9688 15.7395H17.6838C17.2107 15.7395 16.7571 15.5539 16.4225 15.2235L15.4374 14.2504C14.8799 13.6997 14.1238 13.3903 13.3353 13.3903H10.4558C8.48564 13.3903 6.88846 11.8126 6.88846 9.86642C6.88846 7.92027 8.48564 6.34257 10.4558 6.34257H19.9688C21.9389 6.34257 23.5361 7.92027 23.5361 9.86642C23.5361 11.7888 21.9777 13.3517 20.0407 13.3896L20.0403 13.3903H19.1702C18.6971 13.3903 18.2435 13.2046 17.9089 12.8742L16.9238 11.9011C16.4664 11.4492 15.8752 11.1599 15.2422 11.0705L15.2123 11.041H10.4558C9.79909 11.041 9.2667 10.5151 9.2667 9.86642C9.2667 9.2177 9.79909 8.6918 10.4558 8.6918H19.9688C20.6255 8.6918 21.1579 9.2177 21.1579 9.86642C21.1579 10.5151 20.6255 11.041 19.9688 11.041H17.5905L18.4314 11.8716C18.6544 12.0919 18.9568 12.2157 19.2722 12.2157H19.9688C21.2822 12.2157 22.347 11.1639 22.347 9.86642C22.347 8.56898 21.2822 7.51719 19.9688 7.51719H10.4558C9.14237 7.51719 8.07758 8.56898 8.07758 9.86642C8.07758 11.1639 9.14237 12.2157 10.4558 12.2157H14.8217C15.2948 12.2157 15.7485 12.4013 16.083 12.7317L17.0681 13.7048C17.6256 14.2555 18.3818 14.5649 19.1702 14.5649H20.2661V14.5559C22.7545 14.4043 24.7252 12.3627 24.7252 9.86642C24.7252 7.27155 22.5957 5.16795 19.9688 5.16795H10.4558C7.82891 5.16795 5.69935 7.27155 5.69935 9.86642C5.69935 12.4613 7.82891 14.5649 10.4558 14.5649H13.3353C13.8084 14.5649 14.2621 14.7505 14.5966 15.0809L15.5817 16.054C16.1392 16.6047 16.8954 16.9141 17.6838 16.9141H19.9688C23.9092 16.9141 27.1035 13.7588 27.1035 9.86642C27.1035 5.97407 23.9092 2.81872 19.9688 2.81872H10.4558C6.51541 2.81872 3.32111 5.97407 3.32111 9.86642C3.32111 13.7588 6.51541 16.9141 10.4558 16.9141H12.0617C12.5348 16.9141 12.9885 17.0998 13.323 17.4302L14.3081 18.4033C14.8656 18.954 15.6217 19.2634 16.4102 19.2634H19.9688C25.2226 19.2634 29.4817 15.0562 29.4817 9.86642C29.4817 4.67663 25.2226 0.469482 19.9688 0.469482L10.4558 0.469484C5.20196 0.469485 0.942871 4.67664 0.942871 9.86642C0.942872 15.0562 5.20197 19.2634 10.4558 19.2634Z" fill="#212326"/>
</g>
<defs>
<clipPath id="clip0_211_2538">
<rect width="28.5388" height="18.7939" fill="white" transform="translate(0.942871 0.469482)"/>
</clipPath>
</defs>
</svg>
