<svg width="38" height="15" viewBox="0 0 38 15" fill="none" xmlns="http://www.w3.org/2000/svg">
<g clip-path="url(#clip0_211_2542)">
<path d="M9.48474 0.557678C8.07121 0.557678 6.71559 1.1192 5.71609 2.11871L2.4541 5.3807C1.45459 6.38021 0.893066 7.73583 0.893066 9.14936C0.893066 12.0929 3.27926 14.4791 6.22278 14.4791C7.63631 14.4791 8.99193 13.9175 9.99144 12.918L12.2478 10.6617C12.2478 10.6616 12.2478 10.6617 12.2478 10.6617L18.822 4.08749C19.2993 3.61013 19.9468 3.34196 20.6219 3.34196C21.7521 3.34196 22.7103 4.07859 23.0425 5.09794L25.1173 3.02314C24.1708 1.54069 22.5111 0.557678 20.6219 0.557678C19.2083 0.557678 17.8527 1.1192 16.8532 2.11871L8.02267 10.9493C7.54531 11.4266 6.89787 11.6948 6.22278 11.6948C4.81697 11.6948 3.67734 10.5552 3.67734 9.14936C3.67734 8.47426 3.94552 7.82682 4.42288 7.34946L7.68485 4.08749C8.16221 3.61013 8.80965 3.34196 9.48474 3.34196C10.615 3.34196 11.5732 4.07862 11.9054 5.098L13.9802 3.02319C13.0337 1.54071 11.3741 0.557678 9.48474 0.557678Z" fill="#394149"/>
<path d="M19.1598 10.9493C18.6824 11.4266 18.035 11.6948 17.3599 11.6948C16.2298 11.6948 15.2717 10.9583 14.9394 9.93916L12.8646 12.0139C13.8112 13.4962 15.4708 14.4791 17.3599 14.4791C18.7734 14.4791 20.129 13.9175 21.1285 12.918L29.9591 4.08749C30.4364 3.61013 31.0839 3.34196 31.759 3.34196C33.1648 3.34196 34.3044 4.48158 34.3044 5.88739C34.3044 6.56248 34.0362 7.20992 33.5589 7.68729L30.2969 10.9493C29.8195 11.4266 29.1721 11.6948 28.497 11.6948C27.3668 11.6948 26.4087 10.9582 26.0764 9.93893L24.0016 12.0137C24.9482 13.4961 26.6078 14.4791 28.497 14.4791C29.9105 14.4791 31.2661 13.9175 32.2657 12.918L35.5276 9.65605C36.5271 8.65654 37.0887 7.30092 37.0887 5.88739C37.0887 2.94387 34.7025 0.557678 31.759 0.557678C30.3454 0.557678 28.9898 1.1192 27.9903 2.11871L19.1598 10.9493Z" fill="#394149"/>
</g>
<defs>
<clipPath id="clip0_211_2542">
<rect width="36.1956" height="13.9214" fill="white" transform="translate(0.893066 0.557678)"/>
</clipPath>
</defs>
</svg>
