<svg width="21" height="18" viewBox="0 0 21 18" fill="none" xmlns="http://www.w3.org/2000/svg">
<g filter="url(#filter0_d_519_203)">
<path fill-rule="evenodd" clip-rule="evenodd" d="M16.3397 6.76603C16.3397 7.16773 16.2988 7.56887 16.2184 7.95988C16.1401 8.34161 16.0241 8.71638 15.8721 9.07464C15.7236 9.42656 15.5395 9.76569 15.3242 10.082C15.1122 10.3962 14.868 10.6911 14.5997 10.9598C14.3308 11.2274 14.035 11.471 13.7209 11.6839C13.4036 11.8976 13.064 12.0815 12.7118 12.2307C12.3531 12.3819 11.9774 12.4977 11.596 12.5759C11.2045 12.6565 10.8019 12.6976 10.3996 12.6976C9.99703 12.6976 9.59445 12.6565 9.20347 12.5759C8.82149 12.4977 8.44588 12.3819 8.08738 12.2307C7.73528 12.0815 7.39533 11.8976 7.07803 11.6839C6.76391 11.471 6.46807 11.2274 6.19978 10.9598C5.93121 10.6911 5.68698 10.3962 5.47467 10.082C5.26061 9.76569 5.07613 9.42654 4.92706 9.07464C4.77506 8.71638 4.65877 8.34159 4.58016 7.95988C4.5007 7.56887 4.46008 7.16773 4.46008 6.76603C4.46008 6.36403 4.50068 5.96203 4.58019 5.57188C4.65879 5.19015 4.77508 4.8148 4.92708 4.45712C5.07616 4.10494 5.26064 3.76551 5.47469 3.44922C5.687 3.1347 5.93123 2.84042 6.1998 2.57136C6.46809 2.30373 6.76394 2.06076 7.07805 1.84817C7.39536 1.63355 7.7353 1.44966 8.08741 1.3002C8.44591 1.14869 8.82149 1.03257 9.2035 0.954961C9.59447 0.87503 9.99705 0.834473 10.3996 0.834473C10.8019 0.834473 11.2045 0.87503 11.596 0.954961C11.9774 1.03259 12.3531 1.14872 12.7119 1.3002C13.064 1.44963 13.4036 1.63355 13.7209 1.84817C14.035 2.06076 14.3309 2.30373 14.5997 2.57136C14.868 2.84042 15.1123 3.1347 15.3243 3.44922C15.5395 3.76551 15.7236 4.10497 15.8721 4.45712C16.0241 4.8148 16.1401 5.19015 16.2184 5.57188C16.2988 5.96203 16.3397 6.36403 16.3397 6.76603ZM8.23527 2.18442C6.82072 2.85144 5.76496 4.15301 5.43575 5.72163C5.56948 5.72279 7.68332 5.74944 10.1188 5.10326C9.24086 3.54565 8.30286 2.27451 8.23527 2.18442ZM10.5391 5.88326C7.92725 6.66406 5.42096 6.60788 5.33106 6.60442C5.3296 6.65886 5.32699 6.71156 5.32699 6.76603C5.32699 8.06729 5.81861 9.2536 6.62668 10.1506C6.62493 10.148 8.01311 7.68877 10.7505 6.80484C10.8166 6.78283 10.884 6.76312 10.9507 6.74402C10.8233 6.45615 10.6844 6.16767 10.5391 5.88326ZM13.7496 2.96439C12.8565 2.17804 11.6839 1.70105 10.3996 1.70105C9.98743 1.70105 9.58746 1.75087 9.20432 1.84297C9.28029 1.94493 10.2331 3.20711 11.1006 4.79771C13.0146 4.08119 13.7371 2.98291 13.7496 2.96439ZM11.2964 7.58335C11.2851 7.58709 11.2738 7.59031 11.2628 7.59435C8.26987 8.63622 7.2925 10.7359 7.28192 10.7588C8.14308 11.4275 9.22321 11.831 10.3996 11.831C11.1021 11.831 11.7712 11.6882 12.38 11.4296C12.3049 10.987 12.0102 9.4358 11.2964 7.58335ZM13.2342 10.9668C14.3732 10.1993 15.1821 8.98052 15.4078 7.56884C15.3033 7.53525 13.8842 7.08661 12.2469 7.34874C12.9122 9.17456 13.1826 10.6615 13.2342 10.9668ZM11.4911 5.55249C11.6088 5.79404 11.7228 6.03989 11.8281 6.28697C11.8655 6.37561 11.9021 6.46251 11.9377 6.54938C13.6803 6.33041 15.3971 6.69882 15.4705 6.71386C15.4589 5.51309 15.0287 4.41105 14.317 3.54828C14.3074 3.56186 13.4938 4.73572 11.4911 5.55249Z" fill="white"/>
</g>
<defs>
<filter id="filter0_d_519_203" x="0.460083" y="0.834473" width="19.8796" height="19.863" filterUnits="userSpaceOnUse" color-interpolation-filters="sRGB">
<feFlood flood-opacity="0" result="BackgroundImageFix"/>
<feColorMatrix in="SourceAlpha" type="matrix" values="0 0 0 0 0 0 0 0 0 0 0 0 0 0 0 0 0 0 127 0" result="hardAlpha"/>
<feOffset dy="4"/>
<feGaussianBlur stdDeviation="2"/>
<feComposite in2="hardAlpha" operator="out"/>
<feColorMatrix type="matrix" values="0 0 0 0 0 0 0 0 0 0 0 0 0 0 0 0 0 0 0.25 0"/>
<feBlend mode="normal" in2="BackgroundImageFix" result="effect1_dropShadow_519_203"/>
<feBlend mode="normal" in="SourceGraphic" in2="effect1_dropShadow_519_203" result="shape"/>
</filter>
</defs>
</svg>
